<svg version="1.2" xmlns="http://www.w3.org/2000/svg" viewBox="0 0 1542 735" width="1542" height="735">
	<title>brf-foods-seeklogo</title>
	<style>
		.s0 { fill: #ffffff } 
	</style>
	<g id="Layer 1">
		<g id="&lt;Group&gt;">
			<path id="&lt;Compound Path&gt;" fill-rule="evenodd" class="s0" d="m1112.3 427.1c0 82.9-62 144.8-137.3 144.8-75.9 0-136-50-136-145.6v-234.3c13.9-12.2 46.5-26.7 76.6-26.4v153.1c16.9-10.6 42.5-21 70-21 79.4 0 126.7 61.6 126.7 129.4zm-148.2-66.2c-20.9 0-35.1 5.2-48.5 13.3v53.1c0 60.7 43.7 93.6 105.7 77.4 31-65.8 16.4-143.8-57.2-143.8zm255.5 210c-23.7 0-49.7 0-76.2 0v-123.1c0-83.5 45.5-132.6 109.9-142.5 23-3.5 43.2-4.5 64.7-3 0 24.4 0.4 66.7-37.2 78.1-14.9 4.4-39.4 2.7-55.8 0.7-5.4 14.1-5.4 37.1-5.4 60.1zm202.8-258.3h93.1c0 36.8-5.1 61.6-40.9 61.6h-52.2v196.7c-24.7 0-48.7 0-76.1 0v-258.6c0-83.6 52-134.8 122.4-144.7 26-3.9 51.9-4.3 72.9-2.7 0.4 25.2-1.9 69.3-39.1 80-20.7 5.8-55.3 1.4-73.2-0.8-6.1 12.6-6.9 25.7-6.9 46.7z"/>
			<path id="&lt;Compound Path&gt;" fill-rule="evenodd" class="s0" d="m711.9 493.5c-52.6 144.3-191.2 241.4-344.8 241.4-42.7 0-85-7.5-125.5-22.2-190.2-69.2-288.5-280.1-219.2-470.4 52.4-144.4 191-241.4 344.7-241.4 42.7 0 85 7.4 125.4 22.2 190.2 69.1 288.5 280.1 219.4 470.4zm-31.5-2.5c-42.3-26-77.6-69.2-105.4-120.4-50.9 19.1-107.3 30.2-166.8 32.4-13.6 39.5-29.3 78.5-46.6 116.1 117 22.7 236.7 13.4 318-26.3 0.4-0.5 0.5-1.2 0.8-1.8zm-364.7 50.1c-17.1-4.3-33.9-9.1-50.4-14.9-34.4-11.6-66-25.6-95-41.5 14.5 62 33.4 124.7 57 189.4 1.7 0.8 3.6 1.7 5.5 2.4 30.1-40.4 58-86.1 82.9-135.4zm-191.6-198.6c-30.8-15.7-58.7-34.4-83.8-55.3-2 7.4-3.4 14.7-4.7 21.9 21.8 44.3 56.4 83.8 101.6 117-5.1-27.8-9.5-55.7-13.1-83.6zm17.1-26.7c24.8 12.5 51.4 23.1 79.3 31.5-30-76.9-50-159.6-58.8-246-10.1 8-19.6 16.1-28.7 24.9-1.3 64.8 1.5 127.5 8.2 189.6zm301.1-276.1c-7.9-1.7-15.9-3.4-24-4.6-4.4 41.4-18 89.2-39.3 138.5 16.6 6.1 33.7 11.7 51 16.7 8.3-51.8 12.6-102.5 12.3-150.6zm-23.3 331c50.3-2.9 98.2-12.8 141.6-28.6-16.5-35.3-29.9-73.2-40.2-111.7-21.5-3.3-42.6-7.4-63-12.3-9.4 50.8-22.3 102.1-38.4 152.6zm-48.1-178.7c-21.1 45.6-48.1 91.9-79.6 135.3-8.2 11-16.3 21.6-24.5 32 38.1 8.1 78.1 12.4 118.8 12.4 17.6-53.4 31.4-107.7 41-161.5-19-5.4-37.6-11.4-55.7-18.2zm-18.8-7.2c-60.4-24.7-114.4-57.2-159.8-96.9 8.1 90.3 29 176.4 60.9 255.8 7.4-8.9 14.6-18.4 21.8-28.3 30.5-42.1 56.7-86.8 77.1-130.6zm-113.1 206.6c-20.9 23-42.3 43-63.6 59.7 30 17.4 63.4 32.6 100.1 45 8.5 3 17.1 5.8 25.8 8.3-23.4-35.9-44.3-73.5-62.3-113zm-93.2-38.4c4 28.3 8.6 56.6 14.3 84.7 20.4-15.9 41.1-34.9 61.5-56.9-26.3-7.5-51.7-17-75.8-27.8zm190.1 146.1c14.1-30.8 27.1-63 38.9-95.8-34-0.5-67.4-4-99.8-10.1 17.7 37.2 38.1 72.6 60.9 105.9zm243.9-164.5c41.1-17.3 77.7-40.2 108.2-68.1-2.8-8.9-6.1-17.8-9.5-26.4-7.8 0.2-15.7 0.3-23.3 0.3-38.5 0-76.1-2.3-112.6-6.9 10 34.8 22.4 69.2 37.2 101.1zm-64.6-269.1c1.7 44.9 9 96.1 21.8 147 42.5 5.8 86.9 8.3 132.4 7.6-31.9-65.4-85.1-120.9-154.2-154.6zm-33-14c-2.6-1-5.5-1.9-8.2-2.8-0.3 47.9-4.7 98.3-13.3 149.5 17.8 4.2 35.8 8 54.3 11-12.6-53.2-19.5-106.1-20.3-152.9-4.1-1.6-8.2-3.2-12.5-4.8zm-115.1-20.3c-57.7 0-112.9 14.8-161.5 41.5 44 38.4 96.2 69.8 154.6 93.7 20.8-47.9 34-94 38.2-133.7-10.4-1-20.7-1.5-31.3-1.5zm-316.4 221.5q-0.3 0.6-0.4 1.3c20.6 18.8 44 35.5 69.4 50.2-5.1-51.4-7.4-103.2-7.2-156.3-26.4 30.4-47.5 65.6-61.8 104.8zm2.9 237.3c23.9-4 49.4-14.4 75.6-30.6-40.5-28-73.6-60.4-98.8-96.6-0.6 44 7.5 87 23.2 127.2zm147.4 170.7c-22.5-64.2-40.6-126.7-54.3-188.9-29.2 19-58 31.6-85.2 37.2 29.1 62.6 77.1 116.3 139.5 151.7zm166.1 44c34.7 0 68.7-5.6 100.7-15.6-47-37.8-89.3-81-126.4-128.5-23.7 45.7-49.7 89-77.8 127.6 33.6 10.9 68.3 16.5 103.5 16.5zm291.7-168.9c-50.4 17.7-110 26.8-172.9 26.8-35.8 0-72.7-2.8-109.4-8.7 37.2 45.4 79.4 86.3 126 122.1 65-28.7 120.2-77.8 156.3-140.2zm38.2-235c-30.1 25-64.8 45.9-102.9 62 25.3 46.1 56.4 84.7 93.3 108.8 18.4-56.9 20.8-115.6 9.6-170.8z"/>
		</g>
	</g>
</svg>