<?xml version="1.0" encoding="utf-8"?>
<!-- Generator: Adobe Illustrator 27.5.0, SVG Export Plug-In . SVG Version: 6.00 Build 0)  -->
<svg version="1.1" id="Layer_1" xmlns="http://www.w3.org/2000/svg" xmlns:xlink="http://www.w3.org/1999/xlink" x="0px" y="0px"
	 viewBox="0 0 777.2 257" style="enable-background:new 0 0 777.2 257;" xml:space="preserve">
<style type="text/css">
	.st0{fill:none;}
	.st1{fill:#F2F2F2;}
	.st2{fill-rule:evenodd;clip-rule:evenodd;fill:#F2F2F2;}
</style>
<rect x="1.2" class="st0" width="775.8" height="257"/>
<g>
	<path class="st1" d="M475.8,176.4c-5.7,13.8-13.1,16.3-23.1,16.3s-17.4-2.5-23.1-16.3L383.1,66.7h30.3l25.5,63.5
		c6.2,15.3,11,28.1,14,37.8c3.2-9.6,7.9-23,13.9-37.8l25.6-63.5h29.8L475.8,176.4L475.8,176.4z"/>
	<path class="st2" d="M652.8,190.2H623l-9-22.2h-64.2l-9,22.2h-29.5L559,80.6c6.2-14.1,13.2-16.3,23.1-16.3c10,0,17.2,2.4,23.1,16.3
		L652.8,190.2z M604.7,144.8l-8.5-20.5c-6-14.8-11-27.7-14.2-37c-3.2,9.4-8.2,21.9-14.5,37l-8.5,20.5H604.7z"/>
	<path class="st1" d="M719.4,173.9v16.3h-28.6v-16.3c0-11.8,0.5-14.3-5.5-23.9l-52-83.2h32.3l29.5,48.9c4.8,7.7,7.8,12.8,10.5,18.8
		c2.5-5.9,5.5-10.9,10.2-18.8l29.8-48.9h31L724.9,150C718.9,159.6,719.4,162.1,719.4,173.9L719.4,173.9z"/>
	<path class="st2" d="M266.2,128c0,41.2-25.1,64.7-67.9,64.7c-40.5,0-66.6-21.5-66.6-64.4s27.6-63.9,67.8-63.9S266.1,87.2,266.2,128
		z M237,128.5c0-27.2-14.6-40.5-38.5-40.5s-37.7,13.6-37.7,39.8c0,28.7,15.4,41.2,39,41.2S237,154.2,237,128.5z"/>
	<path class="st1" d="M391.6,166.6v23.7h-67.4c-20.4,0-31.8-10.6-31.8-28.9V66.8h28.4v99.8H391.6z"/>
	<path class="st1" d="M55.2,192.7c-21.8,0-36-1.8-51.7-4.9v-23.9c13.4,3.2,26.3,5.7,51.7,5.7c21.9,0,28.3-4.7,28.3-13.3
		c0-8.2-6-12.4-29.6-16.3c-42-7.1-53.2-19-53.2-39c0-24.2,19.6-36.5,54.7-36.5c14.4,0,32,1.5,48.2,5.2v24c-18.7-4.2-33.8-6-48.2-6
		c-18.4,0-25.6,3-25.6,11.6c0,7.5,4.9,11.9,31.8,16.8c41.9,7.7,50.9,19.8,50.9,38.3C112.6,175.7,95.9,192.7,55.2,192.7L55.2,192.7z"
		/>
</g>
</svg>
