<svg version="1.2" xmlns="http://www.w3.org/2000/svg" viewBox="0 0 1552 257" width="1552" height="257"><style>.a{fill:#0096ff}</style><path class="a" d="m949.9 224.2c-11.4 27.6-26.3 32.6-46.2 32.6-19.9 0-34.8-5-46.2-32.6l-92.9-219.3h60.6l51.1 127c12.4 30.6 21.9 56.3 27.9 75.5 6.4-19.2 15.8-45.9 27.8-75.5l51.2-127h59.6l-92.9 219.3z"/><path fill-rule="evenodd" class="a" d="m1304.1 251.8h-59.6l-17.9-44.4h-128.7l-17.9 44.4h-59.1l95.4-219.2c12.4-28.2 26.3-32.6 46.2-32.6 19.9 0 34.3 4.9 46.2 32.6zm-96.3-90.8l-16.9-41c-12-29.7-21.9-55.3-28.3-74.1-6.5 18.8-16.5 43.9-28.9 74.1l-16.9 41z"/><path class="a" d="m1437.2 219.2v32.6h-57.1v-32.6c0-23.7 1-28.6-10.9-47.9l-103.9-166.4h64.6l59.1 97.8c9.5 15.4 15.5 25.7 20.9 37.6 5-11.9 10.9-21.8 20.4-37.6l59.6-97.8h62.1l-103.8 166.5c-12 19.2-11 24.1-11 47.8z"/><path fill-rule="evenodd" class="a" d="m530.7 127.4c0 82.5-50.2 129.4-135.7 129.4-81 0-133.1-43-133.1-128.9 0-85.9 55.1-127.9 135.6-127.9 80.5 0 133.1 45.9 133.2 127.4zm-58.2 1c0-54.4-29.3-81-77-81-47.7 0-75.5 27.1-75.5 79.5 0 57.3 30.8 82.5 78 82.5 47.2 0 74.5-29.7 74.5-81z"/><path class="a" d="m781.6 204.5v47.4h-134.7c-40.7 0-63.6-21.3-63.6-57.8v-189.2h56.7v199.6z"/><path class="a" d="m108.8 256.8c-43.7 0-72-3.5-103.3-9.9v-47.9c26.8 6.4 52.6 11.4 103.3 11.4 43.8 0 56.7-9.4 56.7-26.7 0-16.3-12-24.7-59.2-32.6-84-14.3-106.3-38-106.3-78 0-48.4 39.2-73.1 109.3-73.1 28.8 0 64.1 3 96.4 10.4v47.9c-37.3-8.4-67.6-11.9-96.4-11.9-36.8 0-51.2 6-51.2 23.2 0 14.9 9.9 23.8 63.6 33.6 83.9 15.4 101.8 39.5 101.8 76.6 0 42.9-33.3 77-114.7 77z"/></svg>